<?xml version="1.0" encoding="utf-8"?>
<!-- Generator: Adobe Illustrator 21.0.2, SVG Export Plug-In . SVG Version: 6.00 Build 0)  -->
<svg version="1.1" id="Capa_1" xmlns="http://www.w3.org/2000/svg" xmlns:xlink="http://www.w3.org/1999/xlink" x="0px" y="0px"
	 viewBox="0 0 480 480" style="enable-background:new 0 0 480 480;" xml:space="preserve" width="68" height="68">
<path id="XMLID_1550_" d="M430,90H262.3H50c-27.6,0-50,22.4-50,50v250c0,27.6,22.4,50,50,50h180v20H110c-5.5,0-10,4.5-10,10
	s4.5,10,10,10h260c5.5,0,10-4.5,10-10s-4.5-10-10-10H250v-20h180c27.6,0,50-22.4,50-50V140C480,112.4,457.6,90,430,90z M460,390
	c0,16.5-13.5,30-30,30H50c-16.5,0-30-13.5-30-30V140c0-16.5,13.5-30,30-30h380c16.5,0,30,13.5,30,30V390z M316.7,173.7
	c-19.7,0-36.9,11.9-44.4,29.2c-10.2-4.1-21.2-6.2-32.3-6.2s-22.1,2.1-32.3,6.2c-7.5-17.3-24.7-29.2-44.4-29.2
	c-26.7,0-48.3,21.7-48.3,48.3c0,23.6,17,43.3,39.4,47.5c-0.7,4.6-1.1,9.2-1.1,13.8c0,47.8,38.9,86.7,86.7,86.7s86.7-38.9,86.7-86.7
	c0-4.6-0.4-9.3-1.1-13.8C348,265.3,365,245.6,365,222C365,195.3,343.3,173.7,316.7,173.7z M316.7,250.3c-0.8,0-1.7,0-2.7-0.1
	c-3.3-0.3-6.6,1.1-8.7,3.7c-2.1,2.6-2.8,6.1-1.7,9.3c2.1,6.5,3.1,13.3,3.1,20.2c0,36.8-29.9,66.7-66.7,66.7s-66.7-29.9-66.7-66.7
	c0-6.9,1-13.6,3.1-20.2c1-3.2,0.4-6.7-1.7-9.3c-1.9-2.4-4.8-3.7-7.8-3.7c-0.3,0-0.6,0-0.9,0c-0.9,0.1-1.8,0.1-2.7,0.1
	c-15.6,0-28.3-12.7-28.3-28.3s12.7-28.3,28.3-28.3c14.2,0,26.3,10.6,28.1,24.7c0.4,3.3,2.5,6.2,5.5,7.7c3,1.5,6.6,1.4,9.5-0.3
	c10.2-5.9,21.8-9.1,33.6-9.1c11.8,0,23.4,3.1,33.6,9.1c2.9,1.7,6.5,1.8,9.5,0.3c3-1.5,5.1-4.4,5.5-7.7c1.8-14.1,13.9-24.7,28.1-24.7
	c15.6,0,28.3,12.7,28.3,28.3S332.3,250.3,316.7,250.3z"/>
</svg>
