<?xml version="1.0" encoding="utf-8"?>
<!-- Generator: Adobe Illustrator 21.0.2, SVG Export Plug-In . SVG Version: 6.00 Build 0)  -->
<svg version="1.1" id="Слой_1" xmlns="http://www.w3.org/2000/svg" xmlns:xlink="http://www.w3.org/1999/xlink" x="0px" y="0px"
	 viewBox="0 0 38 18" style="enable-background:new 0 0 38 18;" xml:space="preserve" fill="#fff"  width="38px" height="38px">
<g>
	<path class="st0" d="M35.8,4.5h-33c-1.1,0-2-0.9-2-2v0c0-1.1,0.9-2,2-2h33c1.1,0,2,0.9,2,2v0C37.8,3.6,36.9,4.5,35.8,4.5z"/>
</g>
<g>
	<path class="st0" d="M35.8,11.3h-33c-1.1,0-2-0.9-2-2v0c0-1.1,0.9-2,2-2h33c1.1,0,2,0.9,2,2v0C37.8,10.4,36.9,11.3,35.8,11.3z"/>
</g>
<g>
	<path class="st0" d="M35.8,18h-33c-1.1,0-2-0.9-2-2v0c0-1.1,0.9-2,2-2h33c1.1,0,2,0.9,2,2v0C37.8,17.1,36.9,18,35.8,18z"/>
</g>
</svg>
