<?xml version="1.0" encoding="utf-8"?>
<!-- Generator: Adobe Illustrator 21.0.2, SVG Export Plug-In . SVG Version: 6.00 Build 0)  -->
<svg version="1.1" id="Слой_1" xmlns="http://www.w3.org/2000/svg" xmlns:xlink="http://www.w3.org/1999/xlink" x="0px" y="0px"
	 viewBox="0 0 28.4 28.3" style="enable-background:new 0 0 28.4 28.3;" xml:space="preserve" width="27" height="27">
<style type="text/css">
	.st0{fill:#FFFFFF;}
</style>
<path class="st0" d="M17.1,14L27.3,3.7c0.8-0.8,0.8-2.1,0-2.8c-0.8-0.8-2.1-0.8-2.8,0L14.3,11.2L4,0.9C3.2,0.1,2,0.1,1.2,0.9
	C0.4,1.7,0.4,3,1.2,3.7L11.4,14L1.2,24.3c-0.8,0.8-0.8,2.1,0,2.8c0.8,0.8,2.1,0.8,2.8,0l10.3-10.3l10.3,10.3c0.8,0.8,2.1,0.8,2.8,0
	c0.8-0.8,0.8-2.1,0-2.8L17.1,14z"/>
</svg>
