<?xml version="1.0" encoding="utf-8"?>
<!-- Generator: Adobe Illustrator 21.0.2, SVG Export Plug-In . SVG Version: 6.00 Build 0)  -->
<svg version="1.1" id="Слой_1" xmlns="http://www.w3.org/2000/svg" xmlns:xlink="http://www.w3.org/1999/xlink" x="0px" y="0px"
	 viewBox="0 0 396.6 777" style="enable-background:new 0 0 396.6 777;" xml:space="preserve"  width="380px" height="380px">
<style type="text/css">
	.st0{opacity:0.2;fill:#FFFFFF;}
	.st1{fill:#FFFFFF;}
</style>
<g>
	<path class="st1" d="M341.6,777H55.7c-30.5,0-55.4-27.3-55.4-60.9V60.9C0.4,27.3,25.2,0,55.7,0h285.9C372.2,0,397,27.3,397,60.9
		v655.2C397,749.7,372.2,777,341.6,777z M55.7,8C29.6,8,8.4,31.7,8.4,60.9v655.2c0,29.2,21.2,52.9,47.4,52.9h285.9
		c26.1,0,47.4-23.7,47.4-52.9V60.9C389,31.7,367.8,8,341.6,8H55.7z"/>
	<path class="st1" d="M247.2,65.9h-97.1c-2.2,0-4-1.8-4-4s1.8-4,4-4h97.1c2.2,0,4,1.8,4,4S249.4,65.9,247.2,65.9z"/>
	<rect x="4.4" y="667.1" class="st1" width="388.6" height="8"/>
	<path class="st1" d="M198.7,734.8c-6.3,0-11.3-5.4-11.3-12.1c0-6.7,5.1-12.1,11.3-12.1c6.3,0,11.3,5.4,11.3,12.1
		C210,729.4,204.9,734.8,198.7,734.8z M198.7,718.5c-1.8,0-3.3,1.9-3.3,4.1c0,2.3,1.5,4.1,3.3,4.1c1.8,0,3.3-1.9,3.3-4.1
		C202,720.4,200.5,718.5,198.7,718.5z"/>
</g>
<path class="st0" d="M349.3,272.7c0,0.2,0,0.4,0,0.6c-0.2,0.3-0.4,0.5-0.5,0.8c-4.4,19.3-8.8,38.5-13.2,57.8
	c-4,17.6-8.2,35.1-12.2,52.7c-4,17.5-8,34.9-12,52.4c-4.4,18.9-10.2,38.1-13,57.2c-2.6,17.5-5.5,35.8-17.3,49.8
	c-11.4,13.6-39,27.1-57.3,21.9c-0.7-0.2-1.3-0.4-2-0.6c-2-0.3-4.1-0.5-6.1-0.9c-10.2-2.3-19.4-6.6-27.3-13.6
	c-9.5-8.3-15.3-18.5-15.9-31.2c-0.4-8.4,0.3-16.6,3.1-24.6c4.4-13,12.5-22.8,25.2-28.5c9.9-4.4,20.3-4.9,30.8-3.1
	c11.7,2,22.4,6.5,32.6,12.4c3.4,2,6.8,4.2,10.5,6.4c10.7-46.6,21-93.1,31.3-139.8c-33.5-23.8-66.8-47.4-100.4-71.2
	c-14.1,65-28.1,129.6-42.1,194.3c-6.6,6.5-14.5,12.6-22.6,17.1c-14.4,7.9-29.6,11.5-46,8.9c-14.2-2.2-26.3-8.6-35.8-19.4
	c-5-5.6-8.6-12-9.8-19.6c-0.3-1.7-0.7-3.3-1-5c0-3.9,0-7.8,0-11.8c0.2-0.5,0.5-0.9,0.5-1.4c0.4-5.6,1.7-10.9,3.8-16.1
	c6.9-16.6,19.2-26.3,37-28.8c8.4-1.2,16.8-0.3,25,2c12.2,3.4,23.3,9.1,33.8,16c0.6,0.4,1.2,0.7,2,1.2c0.3-1.4,0.7-2.4,0.9-3.5
	c4-17.8,8-35.5,12-53.3c3.2-14.5,6.4-29,9.6-43.5c3.2-14.4,6.4-28.8,9.5-43.2c3.2-14.5,6.4-29,9.6-43.5c3.2-14.2,6.3-28.4,9.6-42.6
	c0.7-3.2,1.6-6.3,2.4-9.5c0.2,0,0.4,0,0.6,0c0.3,0.3,0.7,0.7,1.1,1c4.8,3,9.6,5.9,14.3,9.1c38,25.8,75.1,52.9,112.2,80.1
	C337.9,264.3,343.6,268.5,349.3,272.7z M211,246c33.4,23.8,66.8,47.6,100.5,71.6c1.6-7.1,3.1-13.7,4.5-20.2
	c-33.5-24.2-66.8-48.3-100.4-72.6C214,232.1,212.5,238.9,211,246z"/>
<g>
	<path class="st1" d="M187.5,146.1h-6.6V133l0.2-8.8h-0.1l-7.1,21.9h-6l-7.1-21.9h-0.1l0.2,8.8v13.1h-6.6v-28.6H165l4.5,14.6
		l1.6,6.1h0.1l1.6-6l4.5-14.6h10.2V146.1z"/>
	<path class="st1" d="M215.2,119.9c1.9,1.6,2.9,4,2.9,7c0,2.9-1,5.2-2.9,6.8s-4.6,2.4-8.2,2.4h-5.7v9.9h-7.5v-28.6H207
		C210.5,117.5,213.3,118.3,215.2,119.9z M209.4,129.8c0.8-0.6,1.1-1.6,1.1-2.9c0-1.3-0.4-2.2-1.1-2.8c-0.8-0.6-2-0.9-3.6-0.9h-4.5
		v7.6h4.5C207.4,130.7,208.6,130.4,209.4,129.8z"/>
	<path class="st1" d="M240.1,119.2c1.8,1.4,2.7,3.4,2.7,5.9c0,1.5-0.3,2.7-0.9,3.7c-0.6,1-1.4,1.7-2.2,2.2c-0.9,0.5-1.6,0.7-2.2,0.7
		v0.1c0.8,0,1.7,0.2,2.6,0.6c0.9,0.4,1.7,1.1,2.4,2.1c0.7,1,1,2.2,1,3.8c0,1.6-0.5,3-1.4,4.3c-1,1.2-2.3,2.2-3.9,2.9
		c-1.7,0.7-3.6,1-5.7,1c-3.1,0-5.5-0.6-7.3-1.7c-1.8-1.1-3.1-2.9-3.9-5.4l6.8-2.9c0.1,1.5,0.6,2.6,1.3,3.3c0.7,0.7,1.8,1,3.1,1
		c1.2,0,2.2-0.3,2.9-0.9c0.7-0.6,1.1-1.4,1.1-2.5c0-1.1-0.3-1.9-1-2.4c-0.7-0.5-1.8-0.7-3.2-0.7h-1.6v-4.7h1.3c1.4,0,2.4-0.3,3-0.8
		c0.6-0.6,1-1.4,1-2.6c0-1-0.3-1.8-0.9-2.4c-0.6-0.6-1.4-0.8-2.5-0.8c-2.4,0-3.8,1.3-4,3.9l-6.5-2.2c0.5-2.5,1.7-4.4,3.6-5.6
		c2-1.2,4.4-1.8,7.3-1.8C235.8,117.1,238.3,117.8,240.1,119.2z"/>
	<path class="st1" d="M153.7,183.3v6.1h11.8v5.8h-11.8v11h-7.5v-28.6h22.2v5.8H153.7z"/>
	<path class="st1" d="M194.6,200.3v5.8h-21.8v-28.6h7.5v22.8H194.6z"/>
	<path class="st1" d="M215.3,199.7h-9.9l-2,6.5h-7.5l10.1-28.6h8.9l10,28.6h-7.7L215.3,199.7z M213.7,194.6l-2.1-6.8l-1.3-4.5h-0.1
		l-1.2,4.5l-2.2,6.9H213.7z"/>
	<path class="st1" d="M248,204.4c-2.2,1.4-4.9,2.1-8,2.1c-2.9,0-5.4-0.6-7.5-1.8c-2.1-1.2-3.7-2.9-4.9-5.1s-1.7-4.8-1.7-7.9
		c0-3,0.6-5.7,1.7-7.9c1.1-2.2,2.7-3.9,4.9-5.1c2.1-1.2,4.6-1.8,7.5-1.8c3.1,0,5.8,0.7,7.9,2c2.2,1.3,3.6,3.3,4.3,5.9l-6.5,2.6
		c-0.4-1.7-1-2.9-1.9-3.6c-0.8-0.7-2-1-3.6-1c-2.1,0-3.7,0.8-4.9,2.3c-1.2,1.5-1.7,3.7-1.7,6.6c0,2.9,0.6,5.1,1.7,6.6
		c1.1,1.5,2.7,2.3,4.8,2.3c1.6,0,2.8-0.4,3.8-1.1c0.9-0.8,1.6-1.9,1.9-3.6l6.8,1.9C251.7,200.8,250.2,203,248,204.4z"/>
	<path class="st1" d="M167.6,266.1h-8.4l-8.2-28.6h8l4.7,22.8l5.2-22.8h6.8l5.2,22.7l4.7-22.7h7.7l-8.3,28.6H177l-3.4-13.9l-1.3-7
		h-0.1l-1.3,7L167.6,266.1z"/>
	<path class="st1" d="M210.9,259.7h-9.9l-2,6.5h-7.5l10.1-28.6h8.9l10,28.6h-7.7L210.9,259.7z M209.4,254.6l-2.1-6.8l-1.3-4.5H206
		l-1.2,4.5l-2.2,6.9H209.4z"/>
	<path class="st1" d="M236.8,266.1h-8.8l-10.2-28.6h7.8l5.2,17.3l1.6,5.6l1.5-5.5l5.3-17.4h7.6L236.8,266.1z"/>
	<path class="st1" d="M174.3,319.7h-9.9l-2,6.5h-7.5l10.1-28.6h8.9l10,28.6h-7.7L174.3,319.7z M172.7,314.6l-2.1-6.8l-1.3-4.5h-0.1
		l-1.2,4.5l-2.2,6.9H172.7z"/>
	<path class="st1" d="M203.6,319.7h-9.9l-2,6.5h-7.5l10.1-28.6h8.9l10,28.6h-7.7L203.6,319.7z M202.1,314.6l-2.1-6.8l-1.3-4.5h-0.1
		l-1.2,4.5l-2.2,6.9H202.1z"/>
	<path class="st1" d="M236.3,324.4c-2.2,1.4-4.9,2.1-8,2.1c-2.9,0-5.4-0.6-7.5-1.8c-2.1-1.2-3.7-2.9-4.9-5.1s-1.7-4.8-1.7-7.9
		c0-3,0.6-5.7,1.7-7.9c1.1-2.2,2.7-3.9,4.9-5.1c2.1-1.2,4.6-1.8,7.5-1.8c3.1,0,5.8,0.7,7.9,2c2.2,1.3,3.6,3.3,4.3,5.9l-6.5,2.6
		c-0.4-1.7-1-2.9-1.9-3.6c-0.8-0.7-2-1-3.6-1c-2.1,0-3.7,0.8-4.9,2.3c-1.2,1.5-1.7,3.7-1.7,6.6c0,2.9,0.6,5.1,1.7,6.6
		c1.1,1.5,2.7,2.3,4.8,2.3c1.6,0,2.8-0.4,3.8-1.1c0.9-0.8,1.6-1.9,1.9-3.6l6.8,1.9C240,320.8,238.5,323,236.3,324.4z"/>
	<path class="st1" d="M169.9,379.7h-9.9l-2,6.5h-7.5l10.1-28.6h8.9l10,28.6h-7.7L169.9,379.7z M168.4,374.6l-2.1-6.8l-1.3-4.5H165
		l-1.2,4.5l-2.2,6.9H168.4z"/>
	<path class="st1" d="M190.4,386.2h-7.5v-28.6h7.5V386.2z"/>
	<path class="st1" d="M204.1,363.3v6.1h11.8v5.8h-11.8v11h-7.5v-28.6h22.2v5.8H204.1z"/>
	<path class="st1" d="M230.7,363.3v6.1h11.8v5.8h-11.8v11h-7.5v-28.6h22.2v5.8H230.7z"/>
	<path class="st1" d="M188.3,439.7h-9.9l-2,6.5h-7.5l10.1-28.6h8.9l10,28.6h-7.7L188.3,439.7z M186.7,434.6l-2.1-6.8l-1.3-4.5h-0.1
		l-1.2,4.5l-2.2,6.9H186.7z"/>
	<path class="st1" d="M225.1,434.5c0,4-1.1,7-3.2,9.1c-2.1,2-5.3,3-9.6,3c-4.2,0-7.4-1-9.6-3c-2.2-2-3.2-5-3.2-9.1v-16.9h7.5v17.1
		c0,2.1,0.4,3.6,1.3,4.6c0.9,1,2.2,1.5,4,1.5c3.6,0,5.4-2,5.4-6.1v-17.1h7.4V434.5z"/>
	<path class="st1" d="M176.1,499.7h-9.9l-2,6.5h-7.5l10.1-28.6h8.9l10,28.6H178L176.1,499.7z M174.5,494.6l-2.1-6.8l-1.3-4.5h-0.1
		l-1.2,4.5l-2.2,6.9H174.5z"/>
	<path class="st1" d="M208.8,504.5c-2.2,1.4-4.9,2.1-8,2.1c-2.9,0-5.4-0.6-7.5-1.8c-2.1-1.2-3.7-2.9-4.9-5.1
		c-1.1-2.2-1.7-4.8-1.7-7.9c0-3,0.6-5.7,1.7-7.9c1.1-2.2,2.7-3.9,4.9-5.1c2.1-1.2,4.6-1.8,7.5-1.8c3.1,0,5.8,0.7,7.9,2
		c2.2,1.3,3.6,3.3,4.3,5.9l-6.5,2.6c-0.4-1.7-1-2.9-1.9-3.6c-0.8-0.7-2-1-3.6-1c-2.1,0-3.7,0.8-4.9,2.3c-1.2,1.5-1.7,3.7-1.7,6.6
		s0.6,5.1,1.7,6.6c1.1,1.5,2.7,2.3,4.8,2.3c1.6,0,2.8-0.4,3.8-1.1c0.9-0.8,1.6-1.9,1.9-3.6l6.8,1.9C212.5,500.9,211,503,208.8,504.5
		z"/>
	<path class="st1" d="M234.8,479.3c1.8,1.4,2.7,3.4,2.7,5.9c0,1.5-0.3,2.7-0.9,3.7c-0.6,1-1.4,1.7-2.2,2.2c-0.9,0.5-1.6,0.7-2.2,0.7
		v0.1c0.8,0,1.7,0.2,2.6,0.6s1.7,1.1,2.4,2.1c0.7,1,1,2.2,1,3.8c0,1.6-0.5,3-1.4,4.3c-1,1.2-2.3,2.2-3.9,2.9c-1.7,0.7-3.6,1-5.7,1
		c-3.1,0-5.5-0.6-7.3-1.7c-1.8-1.1-3.1-2.9-3.9-5.4l6.8-2.9c0.1,1.5,0.6,2.6,1.3,3.3c0.7,0.7,1.8,1,3.1,1c1.2,0,2.2-0.3,2.9-0.9
		c0.7-0.6,1.1-1.4,1.1-2.5c0-1.1-0.3-1.9-1-2.4c-0.7-0.5-1.8-0.7-3.2-0.7H225v-4.7h1.3c1.4,0,2.4-0.3,3-0.8c0.6-0.6,1-1.4,1-2.6
		c0-1-0.3-1.8-0.9-2.4c-0.6-0.6-1.4-0.8-2.5-0.8c-2.4,0-3.8,1.3-4,3.9l-6.5-2.2c0.5-2.5,1.7-4.4,3.6-5.6c2-1.2,4.4-1.8,7.3-1.8
		C230.5,477.1,233,477.9,234.8,479.3z"/>
	<path class="st1" d="M174.5,538.9c2.1,1.2,3.7,2.9,4.8,5.1c1.1,2.2,1.7,4.8,1.7,7.9s-0.6,5.7-1.7,7.9c-1.1,2.2-2.7,3.9-4.8,5.1
		c-2.1,1.2-4.6,1.8-7.5,1.8c-2.9,0-5.4-0.6-7.5-1.8c-2.1-1.2-3.7-2.9-4.9-5.1c-1.1-2.2-1.7-4.8-1.7-7.9s0.6-5.7,1.7-7.9
		c1.1-2.2,2.7-3.9,4.9-5.1c2.1-1.2,4.6-1.8,7.5-1.8C169.9,537.2,172.4,537.7,174.5,538.9z M162.2,545.3c-1.1,1.5-1.6,3.7-1.6,6.6
		c0,2.9,0.5,5.1,1.6,6.6c1.1,1.5,2.7,2.3,4.8,2.3s3.7-0.8,4.7-2.3c1.1-1.5,1.6-3.7,1.6-6.6c0-2.9-0.5-5.1-1.6-6.6
		c-1.1-1.5-2.7-2.3-4.7-2.3S163.3,543.8,162.2,545.3z"/>
	<path class="st1" d="M211.7,550.7v15.5h-5.2l-0.2-3.4c-1.6,2.5-4.4,3.8-8.2,3.8c-2.6,0-4.9-0.6-6.9-1.7c-2-1.1-3.6-2.8-4.7-5
		c-1.1-2.2-1.7-4.9-1.7-8c0-3.1,0.6-5.7,1.7-7.9c1.2-2.2,2.8-3.9,4.9-5.1c2.1-1.2,4.7-1.8,7.6-1.8c3.3,0,5.9,0.6,7.9,1.7
		c2,1.2,3.6,3,4.7,5.6l-6.9,2.7c-0.3-1.4-1-2.5-2-3.2s-2.1-1-3.6-1c-2.2,0-3.9,0.8-5,2.3c-1.2,1.5-1.8,3.7-1.8,6.6c0,6,2.3,9,7,9
		c1.8,0,3.2-0.4,4.3-1.2c1.1-0.8,1.6-2,1.6-3.5v-0.4h-7.1v-5H211.7z"/>
	<path class="st1" d="M243.1,550.7v15.5h-5.2l-0.2-3.4c-1.6,2.5-4.4,3.8-8.2,3.8c-2.6,0-4.9-0.6-6.9-1.7c-2-1.1-3.6-2.8-4.7-5
		c-1.1-2.2-1.7-4.9-1.7-8c0-3.1,0.6-5.7,1.7-7.9c1.2-2.2,2.8-3.9,4.9-5.1c2.1-1.2,4.7-1.8,7.6-1.8c3.3,0,5.9,0.6,7.9,1.7
		c2,1.2,3.6,3,4.7,5.6l-6.9,2.7c-0.3-1.4-1-2.5-2-3.2s-2.1-1-3.6-1c-2.2,0-3.9,0.8-5,2.3c-1.2,1.5-1.8,3.7-1.8,6.6c0,6,2.3,9,7,9
		c1.8,0,3.2-0.4,4.3-1.2c1.1-0.8,1.6-2,1.6-3.5v-0.4h-7.1v-5H243.1z"/>
	<path class="st1" d="M159.8,626.2h-8.4l-8.2-28.6h8l4.7,22.8l5.2-22.8h6.8l5.2,22.7l4.7-22.7h7.7l-8.3,28.6h-8.1l-3.4-13.9l-1.3-7
		h-0.1l-1.3,7L159.8,626.2z"/>
	<path class="st1" d="M222.3,626.2h-6.6v-13.1l0.2-8.8h-0.1l-7.1,21.9h-6l-7.1-21.9h-0.1l0.2,8.8v13.1h-6.6v-28.6h10.6l4.5,14.6
		l1.6,6.1h0.1l1.6-6l4.5-14.6h10.2V626.2z"/>
	<path class="st1" d="M245,619.7h-9.9l-2,6.5h-7.5l10.1-28.6h8.9l10,28.6h-7.7L245,619.7z M243.4,614.7l-2.1-6.8l-1.3-4.5H240
		l-1.2,4.5l-2.2,6.9H243.4z"/>
</g>
</svg>
