<?xml version="1.0" encoding="utf-8"?>
<!-- Generator: Adobe Illustrator 21.0.2, SVG Export Plug-In . SVG Version: 6.00 Build 0)  -->
<svg version="1.1" id="Слой_1" xmlns="http://www.w3.org/2000/svg" xmlns:xlink="http://www.w3.org/1999/xlink" x="0px" y="0px"
	 viewBox="0 0 649 617.5" style="enable-background:new 0 0 649 617.5;" xml:space="preserve">
<style type="text/css">
	.st0{fill:#FFFFFF;}
</style>
<g>
	<path class="st0" d="M324.5,449.7c-8.6,0-15.6,7-15.6,15.5c0,8.5,7,15.5,15.6,15.5c8.6,0,15.6-6.9,15.6-15.5
		C340.2,456.7,333.1,449.7,324.5,449.7z M324.5,471.7c-3.7,0-6.6-2.9-6.6-6.5c0-3.6,3-6.5,6.6-6.5c3.7,0,6.6,2.9,6.6,6.5
		C331.2,468.8,328.2,471.7,324.5,471.7z"/>
	<path class="st0" d="M608.4,0H40.6C18.2,0,0,18,0,40.1v242.2v181.8c0,22.1,18.2,40.1,40.6,40.1h28.2h206.5l-23.5,86.6h-26.6
		c-2.5,0-4.5,2-4.5,4.5v17.7c0,2.5,2,4.5,4.5,4.5h198.7c2.5,0,4.5-2,4.5-4.5v-17.7c0-2.5-2-4.5-4.5-4.5h-26.9l-26.1-86.6h209.4h28.2
		c22.4,0,40.6-18,40.6-40.1V282.4V40.1C649,18,630.8,0,608.4,0z M389.3,596.7c0.6,1.9,2.3,3.2,4.3,3.2h25.8v8.7H229.6v-8.7h25.6
		c2,0,3.8-1.4,4.3-3.3l25.1-92.2h76.8L389.3,596.7z M608.4,495.3h-28.2H364.8h-83.6H68.8H40.6c-17.4,0-31.6-14-31.6-31.1v-25.8h631
		v25.8C640,481.3,625.8,495.3,608.4,495.3z M640,429.3H9v-147V40.1C9,23,23.2,9,40.6,9h567.8C625.8,9,640,23,640,40.1v242.2V429.3z"
		/>
</g>
</svg>
