<?xml version="1.0" encoding="utf-8"?>
<!-- Generator: Adobe Illustrator 21.0.2, SVG Export Plug-In . SVG Version: 6.00 Build 0)  -->
<svg version="1.1" id="Слой_1" xmlns="http://www.w3.org/2000/svg" xmlns:xlink="http://www.w3.org/1999/xlink" x="0px" y="0px"
	 viewBox="0 0 396.6 777" style="enable-background:new 0 0 396.6 777;" xml:space="preserve">
<style type="text/css">
	.st0{fill:#FFFFFF;}
</style>
<g>
	<path class="st0" d="M341.3,777H55.4C24.8,777,0,749.7,0,716.1V60.9C0,27.3,24.8,0,55.4,0h285.9c30.5,0,55.4,27.3,55.4,60.9v655.2
		C396.6,749.7,371.8,777,341.3,777z M55.4,8C29.2,8,8,31.7,8,60.9v655.2C8,745.3,29.2,769,55.4,769h285.9
		c26.1,0,47.4-23.7,47.4-52.9V60.9c0-29.2-21.2-52.9-47.4-52.9H55.4z"/>
	<path class="st0" d="M246.8,65.9h-97.1c-2.2,0-4-1.8-4-4s1.8-4,4-4h97.1c2.2,0,4,1.8,4,4S249.1,65.9,246.8,65.9z"/>
	<rect x="4" y="667.1" class="st0" width="388.6" height="8"/>
	<path class="st0" d="M198.3,734.8c-6.3,0-11.3-5.4-11.3-12.1c0-6.7,5.1-12.1,11.3-12.1c6.3,0,11.3,5.4,11.3,12.1
		C209.7,729.4,204.6,734.8,198.3,734.8z M198.3,718.5c-1.8,0-3.3,1.9-3.3,4.1c0,2.3,1.5,4.1,3.3,4.1c1.8,0,3.3-1.9,3.3-4.1
		C201.7,720.4,200.2,718.5,198.3,718.5z"/>
</g>
</svg>
