<?xml version="1.0" encoding="utf-8"?>
<!-- Generator: Adobe Illustrator 21.0.2, SVG Export Plug-In . SVG Version: 6.00 Build 0)  -->
<svg version="1.1" id="Слой_1" xmlns="http://www.w3.org/2000/svg" xmlns:xlink="http://www.w3.org/1999/xlink" x="0px" y="0px"
	 viewBox="0 0 583.7 555.4" style="enable-background:new 0 0 583.7 555.4;" xml:space="preserve" width="380px" height="380px">
<style type="text/css">
	.st0{opacity:0.2;fill:#FFFFFF;}
	.st1{fill:#FFFFFF;}
</style>
<polygon class="st0" points="463.2,215.4 200.6,355.2 200.6,58 "/>
<g>
	<path class="st1" d="M291.9,404.5c-7.8,0-14.1,6.3-14.1,14c0,7.7,6.3,13.9,14.1,13.9c7.8,0,14.1-6.2,14.1-13.9
		C305.9,410.7,299.6,404.5,291.9,404.5z M291.9,424.2c-3.3,0-6-2.6-6-5.8c0-3.2,2.7-5.9,6-5.9c3.3,0,6,2.6,6,5.9
		C297.8,421.6,295.1,424.2,291.9,424.2z"/>
	<path class="st1" d="M547.2,0H36.5C16.4,0,0,16.2,0,36.1V254v163.5c0,19.9,16.4,36.1,36.5,36.1h25.3h185.7l-21.2,77.9h-24
		c-2.2,0-4,1.8-4,4v15.9c0,2.2,1.8,4,4,4h178.7c2.2,0,4-1.8,4-4v-15.9c0-2.2-1.8-4-4-4H357l-23.5-77.9h188.3h25.3
		c20.1,0,36.5-16.2,36.5-36.1V254V36.1C583.7,16.2,567.3,0,547.2,0z M350.1,536.6c0.5,1.7,2.1,2.9,3.9,2.9h23.2v7.8H206.5v-7.8h23
		c1.8,0,3.4-1.2,3.9-3l22.6-83H325L350.1,536.6z M547.2,445.5h-25.3H328h-75.2h-191H36.5c-15.7,0-28.4-12.6-28.4-28v-23.2h567.5
		v23.2C575.6,432.9,562.8,445.5,547.2,445.5z M575.6,386.1H8.1V254V36.1c0-15.4,12.8-28,28.4-28h510.6c15.7,0,28.4,12.6,28.4,28V254
		V386.1z"/>
</g>
<g>
	<g>
		<path class="st1" d="M181.8,111.1h-9.9l-2,6.5h-7.5l10.1-28.6h8.9l10,28.6h-7.7L181.8,111.1z M180.2,106l-2.1-6.8l-1.3-4.5h-0.1
			l-1.2,4.5l-2.2,6.9H180.2z"/>
		<path class="st1" d="M207.7,117.5h-8.8l-10.2-28.6h7.8l5.2,17.3l1.6,5.6l1.5-5.5l5.3-17.4h7.6L207.7,117.5z"/>
		<path class="st1" d="M228.7,117.5h-7.5V88.9h7.5V117.5z"/>
		<path class="st1" d="M169.4,154.7v6.1h11.8v5.8h-11.8v11h-7.5v-28.6h22.2v5.8H169.4z"/>
		<path class="st1" d="M210.3,171.8v5.8h-21.8v-28.6h7.5v22.8H210.3z"/>
		<path class="st1" d="M226.1,177.5h-8.8l-10.2-28.6h7.8l5.2,17.3l1.6,5.6l1.5-5.5l5.3-17.4h7.6L226.1,177.5z"/>
		<path class="st1" d="M186.9,237.5h-6.6v-13.1l0.2-8.8h-0.1l-7.1,21.9h-6l-7.1-21.9h-0.1l0.2,8.8v13.1h-6.6v-28.6h10.6l4.5,14.6
			l1.6,6.1h0.1l1.6-6l4.5-14.6h10.2V237.5z"/>
		<path class="st1" d="M192.7,232.8c4.8-3,8.3-5.7,10.5-8c2.2-2.3,3.2-4.5,3.2-6.6c0-1.2-0.3-2.1-1-2.8c-0.7-0.7-1.6-1.1-2.9-1.1
			c-1.4,0-2.4,0.5-3.2,1.5c-0.8,1-1.2,2.4-1.2,4.4l-6.4-2c0.1-3.1,1.1-5.5,3.2-7.2c2.1-1.7,4.7-2.6,8-2.6c2.4,0,4.4,0.4,6,1.3
			c1.6,0.9,2.8,2,3.6,3.4c0.8,1.4,1.2,2.9,1.2,4.5c0,2.7-1,5.2-3,7.4c-2,2.3-5,4.6-9.1,6.9v0c1.9-0.1,3.8-0.2,5.8-0.2h6.7v5.7h-21.5
			V232.8z"/>
		<path class="st1" d="M243.1,214.7h-9.3v22.8h-7.5v-22.8H217v-5.8h26.1V214.7z"/>
		<path class="st1" d="M186.2,297.6h-6.6v-13.1l0.2-8.8h-0.1l-7.1,21.9h-6l-7.1-21.9h-0.1l0.2,8.8v13.1H153V269h10.6l4.5,14.6
			l1.6,6.1h0.1l1.6-6L176,269h10.2V297.6z"/>
		<path class="st1" d="M213.8,271.4c1.9,1.6,2.9,4,2.9,7c0,2.9-1,5.2-2.9,6.8s-4.6,2.4-8.2,2.4h-5.7v9.9h-7.5V269h13.1
			C209.2,269,211.9,269.8,213.8,271.4z M208,281.2c0.8-0.6,1.1-1.6,1.1-2.9c0-1.3-0.4-2.2-1.1-2.8c-0.8-0.6-2-0.9-3.6-0.9h-4.5v7.6
			h4.5C206.1,282.2,207.3,281.9,208,281.2z"/>
		<path class="st1" d="M243,291.3h-4.4v6.3H232v-6.3h-14.4v-3.5l12.3-18.8h8.7v17.2h4.4V291.3z M224.6,286.2h7.5v-7.6l0.2-4.7h-0.1
			c-0.5,1.3-1.4,2.9-2.5,4.7L224.6,286.2z"/>
	</g>
</g>
<g>
	<g>
		<path class="st1" d="M343.9,117.5h-6.6v-13.1l0.2-8.8h-0.1l-7.1,21.9h-6l-7.1-21.9h-0.1l0.2,8.8v13.1h-6.6V88.9h10.6l4.5,14.6
			l1.6,6.1h0.1l1.6-6l4.5-14.6h10.2V117.5z"/>
		<path class="st1" d="M371.6,91.4c1.9,1.6,2.9,4,2.9,7c0,2.9-1,5.2-2.9,6.8s-4.6,2.4-8.2,2.4h-5.7v9.9h-7.5V88.9h13.1
			C366.9,88.9,369.6,89.7,371.6,91.4z M365.8,101.2c0.8-0.6,1.1-1.6,1.1-2.9c0-1.3-0.4-2.2-1.1-2.8c-0.8-0.6-2-0.9-3.6-0.9h-4.5v7.6
			h4.5C363.8,102.1,365,101.8,365.8,101.2z"/>
		<path class="st1" d="M402,111.8v5.8h-22.8V88.9h22.3v5.8h-14.8v5.8h11.8v5.4h-11.8v5.9H402z"/>
		<path class="st1" d="M431.9,102v15.5h-5.2l-0.2-3.4c-1.6,2.5-4.4,3.8-8.2,3.8c-2.6,0-4.9-0.6-6.9-1.7c-2-1.1-3.6-2.8-4.7-5
			c-1.1-2.2-1.7-4.9-1.7-8c0-3.1,0.6-5.7,1.7-7.9s2.8-3.9,4.9-5.1c2.1-1.2,4.7-1.8,7.6-1.8c3.3,0,5.9,0.6,7.9,1.7
			c2,1.2,3.6,3,4.7,5.6l-6.9,2.7c-0.3-1.4-1-2.5-2-3.2c-1-0.7-2.1-1-3.6-1c-2.2,0-3.9,0.8-5,2.3c-1.2,1.5-1.8,3.7-1.8,6.6
			c0,6,2.3,9,7,9c1.8,0,3.2-0.4,4.3-1.2c1.1-0.8,1.6-2,1.6-3.5v-0.4h-7.1v-5H431.9z"/>
		<path class="st1" d="M358.9,177.5h-6.6v-13.1l0.2-8.8h-0.1l-7.1,21.9h-6l-7.1-21.9h-0.1l0.2,8.8v13.1h-6.6v-28.6h10.6l4.5,14.6
			l1.6,6.1h0.1l1.6-6l4.5-14.6h10.2V177.5z"/>
		<path class="st1" d="M376.2,165.3l-3.5,4.2v8.1h-7.5v-28.6h7.5v12.7l10.2-12.7h8.3l-9.7,11.6l10.2,17h-8.5L376.2,165.3z"/>
		<path class="st1" d="M410.3,177.5h-8.8l-10.2-28.6h7.8l5.2,17.3l1.6,5.6l1.5-5.5l5.3-17.4h7.6L410.3,177.5z"/>
		<path class="st1" d="M357.8,237.5h-6.6v-13.1l0.2-8.8h-0.1l-7.1,21.9h-6l-7.1-21.9h-0.1l0.2,8.8v13.1h-6.6v-28.6h10.6l4.5,14.6
			l1.6,6.1h0.1l1.6-6l4.5-14.6h10.2V237.5z"/>
		<path class="st1" d="M384.5,210.3c2.1,1.2,3.7,2.9,4.8,5.1s1.7,4.8,1.7,7.9c0,3.1-0.6,5.7-1.7,7.9s-2.7,3.9-4.8,5.1
			c-2.1,1.2-4.6,1.8-7.5,1.8c-2.9,0-5.4-0.6-7.5-1.8c-2.1-1.2-3.7-2.9-4.9-5.1s-1.7-4.8-1.7-7.9c0-3.1,0.6-5.7,1.7-7.9
			s2.7-3.9,4.9-5.1c2.1-1.2,4.6-1.8,7.5-1.8C379.9,208.5,382.4,209.1,384.5,210.3z M372.2,216.6c-1.1,1.5-1.6,3.7-1.6,6.6
			c0,2.9,0.5,5.1,1.6,6.6c1.1,1.5,2.7,2.3,4.8,2.3s3.7-0.8,4.7-2.3c1.1-1.5,1.6-3.7,1.6-6.6c0-2.9-0.5-5.1-1.6-6.6s-2.7-2.3-4.7-2.3
			S373.3,215.1,372.2,216.6z"/>
		<path class="st1" d="M411.4,237.5h-8.8l-10.2-28.6h7.8l5.2,17.3l1.6,5.6l1.5-5.5l5.3-17.4h7.6L411.4,237.5z"/>
		<path class="st1" d="M332.6,297.6h-8.4L316,269h8l4.7,22.8l5.2-22.8h6.8l5.2,22.7l4.7-22.7h7.7l-8.3,28.6h-8.1l-3.4-13.9l-1.3-7
			h-0.1l-1.3,7L332.6,297.6z"/>
		<path class="st1" d="M395,297.6h-6.6v-13.1l0.2-8.8h-0.1l-7.1,21.9h-6l-7.1-21.9h-0.1l0.2,8.8v13.1h-6.6V269h10.6l4.5,14.6
			l1.6,6.1h0.1l1.6-6l4.5-14.6H395V297.6z"/>
		<path class="st1" d="M417.4,297.6h-8.8L398.4,269h7.8l5.2,17.3l1.6,5.6l1.5-5.5l5.3-17.4h7.6L417.4,297.6z"/>
	</g>
</g>
</svg>
