<?xml version="1.0" encoding="utf-8"?>
<!-- Generator: Adobe Illustrator 21.0.2, SVG Export Plug-In . SVG Version: 6.00 Build 0)  -->
<svg version="1.1" id="Слой_1" xmlns="http://www.w3.org/2000/svg" xmlns:xlink="http://www.w3.org/1999/xlink" x="0px" y="0px"
	 viewBox="0 0 114 115" style="enable-background:new 0 0 114 115;" xml:space="preserve" fill="#fff"  width="28px" height="28px">
<path d="M47.9,62.3c-4.4,0-8.6,0-12.8,0c-0.2-0.6-0.2-16.9,0-17.8c4.2,0,8.5,0,12.8,0c0-0.4,0-0.7,0-1c0-4.6,0-9.3,0-13.9
	c0-3.5,0.7-7,2.2-10.2c2.6-5.4,6.9-8.9,12.5-10.8C65.6,7.5,68.8,7,72.1,7c4.4-0.1,8.7,0.2,13.1,0.6c0.1,0,0.3,0.1,0.5,0.1
	c-0.1,5.5-0.3,11-0.4,16.6c-0.4,0-0.7,0-1,0c-3.4,0-6.9-0.1-10.3-0.1c-0.9,0-1.7,0.1-2.6,0.2c-2.8,0.5-4.2,2-4.5,4.9
	c-0.1,0.8-0.1,1.6-0.1,2.4c0,4,0,8.1,0,12.1c0,0.2,0,0.4,0,0.7c6.4,0,12.7,0,19.1,0c-0.3,6-0.6,11.8-0.8,17.8c-6.1,0-12.1,0-18.2,0
	c0,16.3,0,32.4,0,48.7c-6.3,0-12.5,0-18.8,0C47.9,94.8,47.9,78.7,47.9,62.3z"/>
</svg>
