<?xml version="1.0" encoding="utf-8"?>
<!-- Generator: Adobe Illustrator 21.0.2, SVG Export Plug-In . SVG Version: 6.00 Build 0)  -->
<svg version="1.1" id="Слой_1" xmlns="http://www.w3.org/2000/svg" xmlns:xlink="http://www.w3.org/1999/xlink" x="0px" y="0px"
	 viewBox="0 0 28.4 28.3" style="enable-background:new 0 0 28.4 28.3;" xml:space="preserve" wigth="20" height="20">
<path d="M15.2,18.4c-1,0.6-2.1,1-3.2,1.3c-5.5,1.2-11-2.6-11.8-8.1C-0.6,6.2,2.7,1.4,8,0.2C13.4-1,18.9,2.8,19.8,8.3
	c0.4,2.4,0,4.6-1.2,6.6c-0.1,0.2-0.1,0.3,0.1,0.5c3,3,6,6,9,8.9c1,1,1,2.4,0.1,3.3c-0.9,0.9-2.4,0.9-3.3,0c-1.2-1.2-2.5-2.5-3.7-3.7
	c-1.8-1.8-3.5-3.5-5.3-5.3C15.3,18.6,15.3,18.5,15.2,18.4z M17.8,10c0-4.3-3.5-7.8-7.8-7.8c-4.3,0-7.8,3.5-7.8,7.8
	c0,4.3,3.5,7.8,7.8,7.8C14.3,17.8,17.8,14.2,17.8,10z"/>
</svg>
