<?xml version="1.0" encoding="utf-8"?>
<!-- Generator: Adobe Illustrator 21.0.2, SVG Export Plug-In . SVG Version: 6.00 Build 0)  -->
<svg version="1.1" id="Слой_1" xmlns="http://www.w3.org/2000/svg" xmlns:xlink="http://www.w3.org/1999/xlink" x="0px" y="0px"
	 viewBox="0 0 322 347.6" style="enable-background:new 0 0 322 347.6;" xml:space="preserve">
<style type="text/css">
	.st0{fill:#000105;}
	.st1{fill:#FF0000;}
	.st2{opacity:0.7;fill:#FF7900;}
	.st3{opacity:0.7;fill:#FFE600;}
	.st4{fill:#FFFFFF;}
	.st5{fill:#FF7900;}
	.st6{fill:#FFE700;}
</style>
<path class="st5" d="M292.9,321.2c-1.6,2.6-3.8,4.8-6.7,6.3c-5.5,2.9-11.9,2.7-17.2-0.6L19,169.9c-5.3-3.3-8.3-9-8-15.2
	c0.2-6.2,3.6-11.6,9.1-14.5L281.1,2c5.5-2.9,11.9-2.7,17.2,0.6c5.3,3.3,8.3,9,8,15.2l-10.9,295.1
	C295.3,315.9,294.4,318.8,292.9,321.2z M19.2,150c-0.9,1.5-1.4,3.2-1.5,5c-0.1,3.7,1.7,7.2,4.9,9.2l250.1,157
	c3.2,2,7.1,2.1,10.4,0.4c3.3-1.8,5.4-5,5.5-8.8l10.9-295.1c0.1-3.7-1.7-7.2-4.9-9.2c-3.2-2-7-2.1-10.4-0.4l-261,138.2
	C21.5,147.1,20.2,148.4,19.2,150z"/>
<path class="st6" d="M315.3,6.5C312.2,4.2,308.6,3,305,3c-2.3,0-4.5,0.5-6.7,1.4l-288,121.7c-5.7,2.4-9.6,7.5-10.4,13.7
	c-0.8,6.2,1.7,12.1,6.7,15.8L256,344.2c5,3.7,11.3,4.5,17,2.1c2.9-1.2,5.4-3.2,7.2-5.7c1.7-2.3,2.8-5.1,3.2-8.1L322,22.3
	C322.8,16.2,320.3,10.3,315.3,6.5z M316.8,21.7L278.3,332c-0.5,4.3-3.2,7.9-7.2,9.6c-1.5,0.6-3.1,1-4.7,1c-2.5,0-5.1-0.8-7.2-2.4
	L9.7,151.5c-3.5-2.6-5.2-6.7-4.7-11c0.3-2,1-4,2.2-5.6c1.3-1.7,3-3.1,5-3.9l288-121.7c4-1.7,8.4-1.1,11.9,1.5
	C315.6,13.3,317.4,17.4,316.8,21.7z"/>
</svg>
