<?xml version="1.0" encoding="utf-8"?>
<!-- Generator: Adobe Illustrator 21.0.2, SVG Export Plug-In . SVG Version: 6.00 Build 0)  -->
<svg version="1.1" id="Слой_1" xmlns="http://www.w3.org/2000/svg" xmlns:xlink="http://www.w3.org/1999/xlink" x="0px" y="0px"
	 viewBox="0 0 229 241" style="enable-background:new 0 0 229 241;" xml:space="preserve" width="56px" height="56px">
<style type="text/css">
	.st0{fill:#000105;}
	.st1{fill:#FF0000;}
	.st2{opacity:0.7;fill:#FF7900;}
	.st3{opacity:0.7;fill:#FFE600;}
	.st4{fill:#FFFFFF;}
	.st5{fill:#FF7900;}
	.st6{fill:#FFE700;}
</style>
<g>
	<path class="st4" d="M102.8,226.1l-11-0.2L5,70.3l5.6-9.4l178.3,2.7l5.3,9.6L102.8,226.1z M21.4,73.7l76.1,136.6L177.7,76
		L21.4,73.7z"/>
	<path class="st1" d="M55.7,220.6c-3.9,0-7.8-1.1-11.3-3.2c-6.8-4.1-10.8-11.3-10.7-19.2L36,43.8c0.1-8,4.3-15,11.3-18.9
		c7-3.9,15.2-3.7,22,0.3l132.5,79.2c6.8,4.1,10.8,11.3,10.7,19.2c-0.1,8-4.3,15-11.3,18.9L66.4,217.8
		C63,219.7,59.3,220.6,55.7,220.6z M61.3,50l-2.2,142.8l124.8-69.5L61.3,50z M188.8,126.2C188.8,126.2,188.9,126.2,188.8,126.2
		L188.8,126.2z"/>
	<path class="st2" d="M37.3,233c-2.1,0-4.1-0.6-6-1.7c-3.6-2.2-5.7-6-5.7-10.2l3-200.3c0.1-4.2,2.3-7.9,6-10c3.7-2,8-2,11.6,0.2
		l172,102.8c3.6,2.2,5.7,6,5.7,10.2c-0.1,4.2-2.3,7.9-6,10L43,231.5C41.2,232.5,39.3,233,37.3,233z M40.4,14c-1.2,0-2.3,0.3-3.4,0.9
		c-2.2,1.2-3.6,3.5-3.6,6l-3,200.3c0,2.5,1.2,4.8,3.4,6.1c2.2,1.3,4.8,1.3,7,0.1l175-97.5c2.2-1.2,3.6-3.5,3.6-6
		c0-2.5-1.2-4.8-3.4-6.1L44,15C42.9,14.3,41.6,14,40.4,14z"/>
	<path class="st3" d="M39.7,223.7c-3.3,0-6.5-1.1-9.2-3.2c-4.3-3.3-6.5-8.6-5.7-14L48.4,31.1c0.7-5.4,4.2-9.9,9.2-12
		c5-2.1,10.6-1.3,15,2l140.2,108.2c4.3,3.3,6.5,8.6,5.7,14c-0.7,5.4-4.2,9.9-9.2,12L45.5,222.5C43.6,223.3,41.7,223.7,39.7,223.7z
		 M63.4,29.5c-0.6,0-1.1,0.2-1.4,0.3c-0.6,0.2-1.9,1-2.2,2.8L36.2,208.1c-0.2,1.8,0.9,2.9,1.4,3.3c0.5,0.4,1.8,1.2,3.5,0.5
		l163.8-67.3c1.7-0.7,2.1-2.2,2.2-2.8c0.1-0.6,0.1-2.2-1.4-3.3L65.6,30.3C64.8,29.7,64.1,29.5,63.4,29.5z"/>
</g>
</svg>
