<?xml version="1.0" encoding="utf-8"?>
<!-- Generator: Adobe Illustrator 21.0.2, SVG Export Plug-In . SVG Version: 6.00 Build 0)  -->
<svg version="1.1" id="Слой_1" xmlns="http://www.w3.org/2000/svg" xmlns:xlink="http://www.w3.org/1999/xlink" x="0px" y="0px"
	 viewBox="0 0 114 115" style="enable-background:new 0 0 114 115;" xml:space="preserve" fill="#fff"  width="28px" height="28px">
<path d="M-0.2,95c12.4,0.8,23.5-2.2,33.5-9.6c-4.8-0.4-9.2-1.9-13-4.8c-3.8-2.9-6.7-6.5-8.1-11.5c3.2,0,6.2,0,9.2,0
	C10.6,65,4.7,57.6,4.1,46.1c3.2,0.9,6.2,2.3,9.8,2.3C7,42.9,3.7,36.1,4.2,27.6c0.2-3.2,1.7-8,3.3-9.7c12.6,14.5,28.4,22.5,47.3,23.8
	c0.2-3.5,0.1-6.8,0.6-10c1.9-10.3,11.7-18,22.1-18.2c6.6-0.1,12.3,1.9,17.2,6.5c0.4,0.4,1.4,0.6,2,0.4c3.9-1.4,7.8-2.8,11.7-4.3
	c0.5-0.2,0.9-0.4,1.4-0.6c0.1,0,0.2,0.1,0.4,0.1c-1.6,4.8-4.6,8.6-8.6,11.8c4-0.3,7.8-1.5,11.5-3c0.1,0.1,0.2,0.2,0.3,0.3
	c-1.2,1.5-2.3,3.2-3.7,4.6c-2.2,2.2-4.4,4.2-6.8,6.2c-0.9,0.8-1.1,1.6-1,2.6c0.3,9.2-1.5,18-5.1,26.4C90.5,79.4,80.4,90.8,66,98.2
	c-8.8,4.5-18.3,6.6-28.2,6.9c-12.2,0.4-23.7-2.2-34.5-8C2.1,96.4,1,95.7-0.2,95z"/>
</svg>
